<?xml version="1.0" encoding="utf-8"?>
<!-- Generator: Adobe Illustrator 27.4.1, SVG Export Plug-In . SVG Version: 6.00 Build 0)  -->
<svg version="1.1" id="Lager_1" xmlns="http://www.w3.org/2000/svg" xmlns:xlink="http://www.w3.org/1999/xlink" x="0px" y="0px"
	 viewBox="0 0 139 147" style="enable-background:new 0 0 139 147;" xml:space="preserve">
<style type="text/css">
	.st0{fill:#DB4B32;}
	.st1{fill:#FFFFFF;}
</style>
<path class="st0" d="M60.7,16.1c3.8-6.9,13.8-6.9,17.6,0l43.3,79.4c3.6,6.7-1.2,14.8-8.8,14.8H26.2c-7.6,0-12.4-8.1-8.8-14.8
	L60.7,16.1z"/>
<circle class="st1" cx="69.5" cy="90.5" r="12.5"/>
<path class="st1" d="M60.2,42.2c-0.1-2.8,2.2-5.2,5-5.2h8.6c2.8,0,5.1,2.4,5,5.2l-1.1,27c-0.1,2.7-2.3,4.8-5,4.8h-6.4
	c-2.7,0-4.9-2.1-5-4.8L60.2,42.2z"/>
</svg>
