<?xml version="1.0" encoding="utf-8"?>
<!-- Generator: Adobe Illustrator 27.4.1, SVG Export Plug-In . SVG Version: 6.00 Build 0)  -->
<svg version="1.1" id="Lager_1" xmlns="http://www.w3.org/2000/svg" xmlns:xlink="http://www.w3.org/1999/xlink" x="0px" y="0px"
	 viewBox="0 0 1366 768" style="enable-background:new 0 0 1366 768;" xml:space="preserve">
<style type="text/css">
	.st0{fill:none;stroke:#000000;stroke-miterlimit:10;}
	.st1{fill:#979797;stroke:#000000;stroke-miterlimit:10;}
	.st2{fill:#E3E3E0;}
	.st3{fill:#FFFFFF;}
</style>
<g>
	<g>
		<path d="M0,1.5c1.9,0,1.9-3,0-3C-1.9-1.5-1.9,1.5,0,1.5L0,1.5z"/>
	</g>
</g>
<path class="st0" d="M607.5,448.5"/>
<path class="st1" d="M650.5,1037.5"/>
<image style="overflow:visible;" width="207" height="76" xlink:href="../../../Desktop/Skärmavbild 2023-04-17 kl. 13.41.34.png"  transform="matrix(1 0 0 1 601.9545 -334.4546)">
</image>
<image style="overflow:visible;" width="207" height="76" xlink:href="../../../Desktop/Skärmavbild 2023-04-17 kl. 13.41.34.png"  transform="matrix(5.1772 0 0 8.1806 45 -1126)">
</image>
<ellipse class="st2" cx="306" cy="592" rx="108" ry="153"/>
<ellipse class="st2" cx="544" cy="463.5" rx="211" ry="235.5"/>
<ellipse class="st2" cx="164" cy="598" rx="84" ry="110"/>
<ellipse transform="matrix(0.423 -0.9061 0.9061 0.423 25.1163 1086.8553)" class="st2" cx="865.9" cy="523.7" rx="251" ry="239.1"/>
<polygon class="st3" points="80.3,606.8 1107,615 1101.6,768 80.3,768 "/>
<path class="st3" d="M190,949"/>
<polygon class="st2" points="1107.3,515.5 1107,615 1087,615 1087,515.5 "/>
</svg>
